<mxfile host="app.diagrams.net" modified="2023-04-17T05:02:46.340Z" agent="Mozilla/5.0 (Windows NT 10.0; Win64; x64) AppleWebKit/537.36 (KHTML, like Gecko) Chrome/112.0.0.0 Safari/537.36" version="21.1.8" etag="acYHfNiwYHDpIcjmWTEk" type="device">
  <diagram id="XWHCjsrhyF7Mgzwj-VoZ" name="Page-1">
    <mxGraphModel dx="1434" dy="745" grid="1" gridSize="10" guides="1" tooltips="1" connect="1" arrows="1" fold="1" page="1" pageScale="1" pageWidth="850" pageHeight="1100" math="0" shadow="0">
      <root>
        <mxCell id="0" />
        <mxCell id="1" parent="0" />
        <mxCell id="P74y1WAKU_YaZi5cQIZ4-1" value="&lt;font style=&quot;font-size: 20px;&quot;&gt;1&lt;/font&gt;" style="rounded=0;whiteSpace=wrap;html=1;fontSize=20;" vertex="1" parent="1">
          <mxGeometry x="60" y="160" width="60" height="60" as="geometry" />
        </mxCell>
        <mxCell id="P74y1WAKU_YaZi5cQIZ4-2" value="-1" style="rounded=0;whiteSpace=wrap;html=1;fontSize=20;" vertex="1" parent="1">
          <mxGeometry x="120" y="160" width="60" height="60" as="geometry" />
        </mxCell>
        <mxCell id="P74y1WAKU_YaZi5cQIZ4-3" value="-2" style="rounded=0;whiteSpace=wrap;html=1;fontSize=20;" vertex="1" parent="1">
          <mxGeometry x="180" y="160" width="60" height="60" as="geometry" />
        </mxCell>
        <mxCell id="P74y1WAKU_YaZi5cQIZ4-4" value="-3" style="rounded=0;whiteSpace=wrap;html=1;fontSize=20;" vertex="1" parent="1">
          <mxGeometry x="240" y="160" width="60" height="60" as="geometry" />
        </mxCell>
        <mxCell id="P74y1WAKU_YaZi5cQIZ4-5" value="3" style="rounded=0;whiteSpace=wrap;html=1;fontSize=20;" vertex="1" parent="1">
          <mxGeometry x="300" y="160" width="60" height="60" as="geometry" />
        </mxCell>
        <mxCell id="P74y1WAKU_YaZi5cQIZ4-6" value="-4" style="rounded=0;whiteSpace=wrap;html=1;fontSize=20;" vertex="1" parent="1">
          <mxGeometry x="360" y="160" width="60" height="60" as="geometry" />
        </mxCell>
        <mxCell id="P74y1WAKU_YaZi5cQIZ4-7" value="-5" style="rounded=0;whiteSpace=wrap;html=1;fontSize=20;" vertex="1" parent="1">
          <mxGeometry x="420" y="160" width="60" height="60" as="geometry" />
        </mxCell>
        <mxCell id="P74y1WAKU_YaZi5cQIZ4-8" value="-6" style="rounded=0;whiteSpace=wrap;html=1;fontSize=20;" vertex="1" parent="1">
          <mxGeometry x="480" y="160" width="60" height="60" as="geometry" />
        </mxCell>
        <mxCell id="P74y1WAKU_YaZi5cQIZ4-9" value="0" style="rounded=0;whiteSpace=wrap;html=1;fontSize=20;" vertex="1" parent="1">
          <mxGeometry x="540" y="160" width="60" height="60" as="geometry" />
        </mxCell>
        <mxCell id="P74y1WAKU_YaZi5cQIZ4-10" value="2" style="rounded=0;whiteSpace=wrap;html=1;fontSize=20;" vertex="1" parent="1">
          <mxGeometry x="600" y="160" width="60" height="60" as="geometry" />
        </mxCell>
        <mxCell id="P74y1WAKU_YaZi5cQIZ4-11" value="-7" style="rounded=0;whiteSpace=wrap;html=1;fontSize=20;" vertex="1" parent="1">
          <mxGeometry x="660" y="160" width="60" height="60" as="geometry" />
        </mxCell>
        <mxCell id="P74y1WAKU_YaZi5cQIZ4-12" value="-8" style="rounded=0;whiteSpace=wrap;html=1;fontSize=20;" vertex="1" parent="1">
          <mxGeometry x="720" y="160" width="60" height="60" as="geometry" />
        </mxCell>
        <mxCell id="P74y1WAKU_YaZi5cQIZ4-13" value="" style="endArrow=none;dashed=1;html=1;dashPattern=1 3;strokeWidth=2;rounded=0;" edge="1" parent="1">
          <mxGeometry width="50" height="50" relative="1" as="geometry">
            <mxPoint x="300" y="245" as="sourcePoint" />
            <mxPoint x="300" y="135" as="targetPoint" />
          </mxGeometry>
        </mxCell>
        <mxCell id="P74y1WAKU_YaZi5cQIZ4-14" value="" style="endArrow=none;dashed=1;html=1;dashPattern=1 3;strokeWidth=2;rounded=0;" edge="1" parent="1">
          <mxGeometry width="50" height="50" relative="1" as="geometry">
            <mxPoint x="540" y="245" as="sourcePoint" />
            <mxPoint x="540" y="135" as="targetPoint" />
          </mxGeometry>
        </mxCell>
        <mxCell id="P74y1WAKU_YaZi5cQIZ4-15" value="" style="shape=curlyBracket;whiteSpace=wrap;html=1;rounded=1;flipH=1;labelPosition=right;verticalLabelPosition=middle;align=left;verticalAlign=middle;rotation=90;" vertex="1" parent="1">
          <mxGeometry x="170" y="130" width="20" height="240" as="geometry" />
        </mxCell>
        <mxCell id="P74y1WAKU_YaZi5cQIZ4-16" value="" style="shape=curlyBracket;whiteSpace=wrap;html=1;rounded=1;flipH=1;labelPosition=right;verticalLabelPosition=middle;align=left;verticalAlign=middle;rotation=90;" vertex="1" parent="1">
          <mxGeometry x="410" y="130" width="20" height="240" as="geometry" />
        </mxCell>
        <mxCell id="P74y1WAKU_YaZi5cQIZ4-17" value="" style="shape=curlyBracket;whiteSpace=wrap;html=1;rounded=1;flipH=1;labelPosition=right;verticalLabelPosition=middle;align=left;verticalAlign=middle;rotation=90;" vertex="1" parent="1">
          <mxGeometry x="650" y="130" width="20" height="240" as="geometry" />
        </mxCell>
        <mxCell id="P74y1WAKU_YaZi5cQIZ4-18" value="machine 1" style="text;strokeColor=none;fillColor=none;html=1;fontSize=24;fontStyle=1;verticalAlign=middle;align=center;" vertex="1" parent="1">
          <mxGeometry x="130" y="270" width="100" height="40" as="geometry" />
        </mxCell>
        <mxCell id="P74y1WAKU_YaZi5cQIZ4-19" value="machine 2" style="text;strokeColor=none;fillColor=none;html=1;fontSize=24;fontStyle=1;verticalAlign=middle;align=center;" vertex="1" parent="1">
          <mxGeometry x="370" y="270" width="100" height="40" as="geometry" />
        </mxCell>
        <mxCell id="P74y1WAKU_YaZi5cQIZ4-20" value="machine 3" style="text;strokeColor=none;fillColor=none;html=1;fontSize=24;fontStyle=1;verticalAlign=middle;align=center;" vertex="1" parent="1">
          <mxGeometry x="610" y="270" width="100" height="40" as="geometry" />
        </mxCell>
      </root>
    </mxGraphModel>
  </diagram>
</mxfile>
